<?xml version="1.0" encoding="UTF-8" standalone="no"?>
<svg
   xmlns:dc="http://purl.org/dc/elements/1.1/"
   xmlns:cc="http://creativecommons.org/ns#"
   xmlns:rdf="http://www.w3.org/1999/02/22-rdf-syntax-ns#"
   xmlns:svg="http://www.w3.org/2000/svg"
   xmlns="http://www.w3.org/2000/svg"
   xmlns:sodipodi="http://sodipodi.sourceforge.net/DTD/sodipodi-0.dtd"
   xmlns:inkscape="http://www.inkscape.org/namespaces/inkscape"
   width="30px"
   height="30px"
   viewBox="0 0 30 30"
   version="1.1"
   id="svg2"
   inkscape:version="0.48.4 r9939"
   sodipodi:docname="Invaders.svg">
  <metadata
     id="metadata16">
    <rdf:RDF>
      <cc:Work
         rdf:about="">
        <dc:format>image/svg+xml</dc:format>
        <dc:type
           rdf:resource="http://purl.org/dc/dcmitype/StillImage" />
      </cc:Work>
    </rdf:RDF>
  </metadata>
  <sodipodi:namedview
     pagecolor="#ffffff"
     bordercolor="#666666"
     borderopacity="1"
     objecttolerance="10"
     gridtolerance="10"
     guidetolerance="10"
     inkscape:pageopacity="0"
     inkscape:pageshadow="2"
     inkscape:window-width="1855"
     inkscape:window-height="1056"
     id="namedview14"
     showgrid="false"
     inkscape:zoom="7.8666667"
     inkscape:cx="-7.3728814"
     inkscape:cy="4.8305085"
     inkscape:window-x="65"
     inkscape:window-y="24"
     inkscape:window-maximized="1"
     inkscape:current-layer="svg2" />
  <!-- Generator: Sketch 39.1 (31720) - http://www.bohemiancoding.com/sketch -->
  <title
     id="title4">invaders_dark</title>
  <desc
     id="desc6">Created with Sketch.</desc>
  <defs
     id="defs8" />
  <g
     id="Page-1"
     stroke="none"
     stroke-width="1"
     fill="none"
     fill-rule="evenodd"
     style="fill:#ffffff;fill-opacity:1">
    <g
       id="invaders_dark"
       fill="#778591"
       style="fill:#ffffff;fill-opacity:1">
      <path
         d="M18.2312172,5 L9.61560861,5 L9.61560861,7.15317417 L7.46077048,7.15317417 L7.46077048,9.30759631 L5.30759631,9.30759631 L5.30759631,11.4607705 L3.15317417,11.4607705 L3.15317417,13.6156086 L1,13.6156086 L1,15.7687828 L3.15317417,15.7687828 L3.15317417,17.9232049 L5.30759631,17.9232049 L5.30759631,20.0763791 L7.46077048,20.0763791 L7.46077048,17.9232049 L11.7687828,17.9232049 L11.7687828,20.0763791 L13.9232049,20.0763791 L13.9232049,17.9232049 L16.0763791,17.9232049 L16.0763791,20.0763791 L18.2312172,20.0763791 L18.2312172,17.9232049 L22.5388135,17.9232049 L22.5388135,20.0763791 L24.6919877,20.0763791 L24.6919877,17.9232049 L26.8451619,17.9232049 L26.8451619,15.7687828 L29,15.7687828 L29,13.6156086 L26.8451619,13.6156086 L26.8451619,11.4607705 L24.6919877,11.4607705 L24.6919877,9.30759631 L22.5388135,9.30759631 L22.5388135,7.15317417 L20.3843914,7.15317417 L20.3843914,5 L18.2312172,5 Z M18.2312172,11.4607705 L20.3843914,11.4607705 L20.3843914,13.6156086 L18.2312172,13.6156086 L18.2312172,11.4607705 Z M9.61560861,11.4607705 L11.7687828,11.4607705 L11.7687828,13.6156086 L9.61560861,13.6156086 L9.61560861,11.4607705 Z M24.6919877,22.2312172 L26.8451619,22.2312172 L26.8451619,20.0763791 L24.6919877,20.0763791 L24.6919877,22.2312172 Z M18.2312172,22.2312172 L20.3843914,22.2312172 L20.3843914,20.0763791 L18.2312172,20.0763791 L18.2312172,22.2312172 Z M9.61560861,20.0763791 L9.61560861,22.2312172 L7.46077048,22.2312172 L7.46077048,24.3843914 L9.61560861,24.3843914 L9.61560861,22.2312172 L11.7687828,22.2312172 L11.7687828,20.0763791 L9.61560861,20.0763791 Z M3.15317417,22.2312172 L5.30759631,22.2312172 L5.30759631,20.0763791 L3.15317417,20.0763791 L3.15317417,22.2312172 Z M26.8451619,24.3843914 L29,24.3843914 L29,22.2312172 L26.8451619,22.2312172 L26.8451619,24.3843914 Z M20.3843914,24.3843914 L22.5388135,24.3843914 L22.5388135,22.2312172 L20.3843914,22.2312172 L20.3843914,24.3843914 Z M1,24.3843914 L3.15317417,24.3843914 L3.15317417,22.2312172 L1,22.2312172 L1,24.3843914 Z"
         id="path12"
         style="fill:#ffffff;fill-opacity:1" />
    </g>
  </g>
</svg>
