<?xml version="1.0" encoding="UTF-8" standalone="no"?>
<svg
   xmlns:dc="http://purl.org/dc/elements/1.1/"
   xmlns:cc="http://creativecommons.org/ns#"
   xmlns:rdf="http://www.w3.org/1999/02/22-rdf-syntax-ns#"
   xmlns:svg="http://www.w3.org/2000/svg"
   xmlns="http://www.w3.org/2000/svg"
   xmlns:sodipodi="http://sodipodi.sourceforge.net/DTD/sodipodi-0.dtd"
   xmlns:inkscape="http://www.inkscape.org/namespaces/inkscape"
   width="30px"
   height="30px"
   viewBox="0 0 30 30"
   version="1.1"
   id="svg2"
   inkscape:version="0.48.4 r9939"
   sodipodi:docname="Spots.svg">
  <metadata
     id="metadata19">
    <rdf:RDF>
      <cc:Work
         rdf:about="">
        <dc:format>image/svg+xml</dc:format>
        <dc:type
           rdf:resource="http://purl.org/dc/dcmitype/StillImage" />
      </cc:Work>
    </rdf:RDF>
  </metadata>
  <sodipodi:namedview
     pagecolor="#ffffff"
     bordercolor="#666666"
     borderopacity="1"
     objecttolerance="10"
     gridtolerance="10"
     guidetolerance="10"
     inkscape:pageopacity="0"
     inkscape:pageshadow="2"
     inkscape:window-width="1855"
     inkscape:window-height="1056"
     id="namedview17"
     showgrid="false"
     inkscape:zoom="7.8666667"
     inkscape:cx="-7.3728814"
     inkscape:cy="15"
     inkscape:window-x="65"
     inkscape:window-y="24"
     inkscape:window-maximized="1"
     inkscape:current-layer="svg2" />
  <!-- Generator: Sketch 39.1 (31720) - http://www.bohemiancoding.com/sketch -->
  <title
     id="title4">spots_dark</title>
  <desc
     id="desc6">Created with Sketch.</desc>
  <defs
     id="defs8" />
  <g
     id="Page-1"
     stroke="none"
     stroke-width="1"
     fill="none"
     fill-rule="evenodd"
     style="fill:#ffffff;fill-opacity:1">
    <g
       id="spots_dark"
       fill="#778591"
       style="fill:#ffffff;fill-opacity:1">
      <g
         id="g12"
         transform="translate(2.000000, 3.000000)"
         style="fill:#ffffff;fill-opacity:1">
        <path
           d="M11.64592,17.9209333 C11.64592,21.04232 9.11490667,23.5719467 5.99352,23.5719467 C2.87213333,23.5719467 0.342506667,21.04232 0.342506667,17.9209333 C0.342506667,14.7995467 2.87213333,12.26888 5.99352,12.26888 C9.11490667,12.26888 11.64592,14.7995467 11.64592,17.9209333"
           id="Fill-1"
           style="fill:#ffffff;fill-opacity:1" />
        <path
           d="M25.6762133,17.9209333 C25.6762133,21.04232 23.1469333,23.5719467 20.0255467,23.5719467 C16.90416,23.5719467 14.3731467,21.04232 14.3731467,17.9209333 C14.3731467,14.7995467 16.90416,12.26888 20.0255467,12.26888 C23.1469333,12.26888 25.6762133,14.7995467 25.6762133,17.9209333"
           id="Fill-2"
           style="fill:#ffffff;fill-opacity:1" />
        <path
           d="M18.6524,5.6524 C18.6524,8.77378667 16.1213867,11.3030667 13,11.3030667 C9.87861333,11.3030667 7.3476,8.77378667 7.3476,5.6524 C7.3476,2.53101333 9.87861333,0 13,0 C16.1213867,0 18.6524,2.53101333 18.6524,5.6524"
           id="Fill-3"
           style="fill:#ffffff;fill-opacity:1" />
      </g>
    </g>
  </g>
</svg>
